<svg width="37" height="37" viewBox="0 0 37 37" fill="none" xmlns="http://www.w3.org/2000/svg">
<path d="M6.1504 36.06H29.9292C34.0229 36.06 36.0602 34.0229 36.0602 29.988V6.07201C36.0602 2.03707 34.0229 0 29.9292 0H6.1504C2.07626 0 0 2.01743 0 6.07201V29.988C0 34.0426 2.07626 36.06 6.1504 36.06ZM15.3759 28.0489C14.6905 28.0489 14.1811 27.755 13.6327 27.089L7.97202 20.116C7.67818 19.7439 7.50193 19.2738 7.50193 18.8429C7.50193 17.9223 8.22666 17.2172 9.08846 17.2172C9.6565 17.2172 10.1461 17.4326 10.5967 18.0399L15.2781 24.0922L24.3861 9.4998C24.7582 8.89257 25.2675 8.59881 25.7768 8.59881C26.6386 8.59881 27.4808 9.16677 27.4808 10.107C27.4808 10.5379 27.2263 11.008 26.9716 11.3997L17.0213 27.089C16.5904 27.7355 16.0419 28.0489 15.3759 28.0489Z" fill="#1DB954"/>
</svg>
