<svg width="44" height="44" viewBox="0 0 44 44" fill="none" xmlns="http://www.w3.org/2000/svg">
<path d="M43.254 0.5104C42.7807 0.105892 42.154 -0.0711394 41.5388 0.0261419L14.5711 4.28417C13.5363 4.44754 12.7743 5.33949 12.7743 6.38706V14.9032V28.3871H8.51615C3.82035 28.3872 0 31.8893 0 36.1935C0 40.4981 3.82035 44 8.51615 44C13.2119 44 17.0323 40.4981 17.0323 36.1935V30.5161V16.7224L39.742 13.1367V24.8387H35.4839C30.7881 24.8387 26.9678 28.3408 26.9678 32.6452C26.9678 36.9498 30.7881 40.4517 35.4839 40.4517C40.1797 40.4517 44 36.9498 44 32.6452V26.9677V10.6452V2.12903C44 1.5065 43.7275 0.915079 43.254 0.5104Z" fill="#1DB954"/>
</svg>
