<svg width="36" height="36" viewBox="0 0 36 36" fill="none" xmlns="http://www.w3.org/2000/svg">
<path d="M6.14014 36H29.8793C33.9662 36 36 33.9663 36 29.9381V6.06191C36 2.03368 33.9662 0 29.8793 0H6.14014C2.0728 0 0 2.01407 0 6.06191V29.9381C0 33.9859 2.0728 36 6.14014 36ZM6.19879 32.8517C4.24338 32.8517 3.14833 31.8153 3.14833 29.7817V6.21834C3.14833 4.18466 4.24338 3.14826 6.19879 3.14826H29.8206C31.7565 3.14826 32.8516 4.18466 32.8516 6.21834V29.7817C32.8516 31.8153 31.7565 32.8517 29.8206 32.8517H6.19879ZM15.5654 27.748C16.2107 27.748 16.7387 27.4351 17.1493 26.8094L26.8092 11.6155C27.0439 11.2438 27.2785 10.7941 27.2785 10.364C27.2785 9.46447 26.4964 8.89729 25.6751 8.89729C25.1471 8.89729 24.6583 9.21025 24.3063 9.79687L15.4872 23.9348L10.931 18.0489C10.5008 17.4818 10.0315 17.2667 9.50347 17.2667C8.64312 17.2667 7.95872 17.9511 7.95872 18.8311C7.95872 19.2613 8.13468 19.6915 8.42803 20.063L13.8837 26.8289C14.4117 27.4546 14.9201 27.748 15.5654 27.748Z" fill="#1DB954"/>
</svg>
